<?xml version="1.0" encoding="UTF-8"?>
<!DOCTYPE svg PUBLIC "-//W3C//DTD SVG 1.1//EN" "http://www.w3.org/Graphics/SVG/1.1/DTD/svg11.dtd">
<!-- Creator: CorelDRAW -->
<svg xmlns="http://www.w3.org/2000/svg" xml:space="preserve" width="431.8mm" height="279.4mm" version="1.1" style="shape-rendering:geometricPrecision; text-rendering:geometricPrecision; image-rendering:optimizeQuality; fill-rule:evenodd; clip-rule:evenodd"
viewBox="0 0 43180 27940"
 xmlns:xlink="http://www.w3.org/1999/xlink"
 xmlns:xodm="http://www.corel.com/coreldraw/odm/2003">
 <defs>
  <style type="text/css">
   <![CDATA[
    .fil1 {fill:#373435;fill-rule:nonzero}
    .fil3 {fill:#F1613A;fill-rule:nonzero}
    .fil2 {fill:#F3F4F4;fill-rule:nonzero}
    .fil0 {fill:#201E1E;fill-rule:nonzero}
   ]]>
  </style>
 </defs>
 <g id="Capa_x0020_1">
  <metadata id="CorelCorpID_0Corel-Layer"/>
  <path class="fil0" d="M14355.07 16655.76c210.84,0 354.06,-110.6 354.06,-278.8l0 -3.06c0,-180.21 -139.24,-274.91 -344.37,-274.91l-321.2 0 0 556.77 311.51 0zm-396.21 -634.34l412.21 0c250.73,0 422.51,128.24 422.51,347.02l0 3.12c0,238.63 -206.76,362.64 -443.58,362.64l-306.44 0 0 422.83 -84.7 0 0 -1135.61z"/>
  <path class="fil0" d="M15699.35 16763.32l-299.34 -657.38 -299.96 657.38 599.3 0zm-338.22 -750.73l81.12 0 529.76 1144.44 -92.67 0 -144.23 -317.6 -670.2 0 -144.86 317.6 -87.66 0 528.74 -1144.44z"/>
  <path class="fil0" d="M16680.35 16610.19c189.13,0 330.4,-95.3 330.4,-259.85l0 -3.43c0,-151.65 -119.96,-247.9 -326.11,-247.9l-388.4 0 0 511.18 384.11 0zm-467.94 -588.77l477.14 0c139.66,0 252.52,44.03 319.5,111.31 54.07,54.01 86.24,129.97 86.24,211.52l0 2.66c0,190.77 -141.14,299.5 -332.37,325.25l374.59 484.89 -106.38 0 -362.8 -470.04 -372.09 0 0 470.04 -83.83 0 0 -1135.63z"/>
  <path class="fil0" d="M18155.92 16763.32l-299.49 -657.38 -299.97 657.38 599.46 0zm-338.37 -750.73l81.42 0 529.21 1144.44 -91.8 0 -144.31 -317.6 -670.9 0 -144.48 317.6 -87.64 0 528.5 -1144.44z"/>
  <polygon class="fil0" points="19155.55,16021.42 19239.93,16021.42 19239.93,17079.7 19907.3,17079.7 19907.3,17157.05 19155.55,17157.05 "/>
  <path class="fil0" d="M20930.66 16763.32l-299.18 -657.38 -300.61 657.38 599.79 0zm-338.77 -750.73l81.58 0 529.45 1144.44 -92.42 0 -144.95 -317.6 -670.59 0 -144.7 317.6 -87.02 0 528.65 -1144.44z"/>
  <path class="fil0" d="M21879.6 16592.51l0 -2.97c0,-322.13 240.17,-588.39 568.15,-588.39 202.96,0 324.87,75.18 441.72,182.34l-60.19 61.6c-98.5,-95.48 -212.23,-167.28 -383.08,-167.28 -272.2,0 -478.41,222.21 -478.41,508.21l0 3.52c0,287.31 208.96,511.42 479.96,511.42 163.77,0 276.86,-62.99 391.69,-177.12l56.73 54.87c-120.34,119.04 -250.31,198.19 -451.54,198.19 -324.86,0 -565.03,-257.97 -565.03,-584.39z"/>
  <path class="fil0" d="M24100.77 16592.51l0 -2.97c0,-281.46 -204.27,-511.73 -484.87,-511.73 -281.08,0 -483.16,227.06 -483.16,508.21l0 3.52c0,281.07 204.97,511.42 486.04,511.42 280.62,0 481.99,-227.14 481.99,-508.45zm-1054.98 0l0 -2.97c0,-309.89 228.47,-588.39 572.99,-588.39 343.75,0 569.5,274.6 569.5,584.87l0 3.52c0,309.26 -228.56,587.36 -572.38,587.36 -344.85,0 -570.11,-273.35 -570.11,-584.39z"/>
  <polygon class="fil0" points="24475.8,16021.42 24555.81,16021.42 25339.33,17009.98 25339.33,16021.42 25420.67,16021.42 25420.67,17157.05 25358.07,17157.05 24557.69,16148.26 24557.69,17157.05 24475.8,17157.05 "/>
  <path class="fil0" d="M25685.21 16991.92l55.09 -63.3c125.21,115.83 240.02,169.06 406.98,169.06 170.95,0 288.57,-95.6 288.57,-225.41l0 -3.37c0,-120.52 -63.99,-190.43 -321.82,-242.83 -272.79,-54.72 -383.25,-147.11 -383.25,-319.47l0 -3.43c0,-168.2 154.31,-298.17 365.3,-298.17 165.88,0 273.74,44.8 389.97,137.75l-53.23 66.91c-108.04,-92.73 -214.82,-128.95 -340.01,-128.95 -167.05,0 -277.26,95.92 -277.26,214.96l0 2.89c0,120.52 61.11,192.63 330.25,249.23 263.36,52.15 374.83,147.45 374.83,312.53l0 3.76c0,182.49 -158.62,309.56 -378.02,309.56 -181.32,0 -321.13,-59.96 -457.4,-181.72z"/>
  <polygon class="fil0" points="27087.77,16099.01 26692.33,16099.01 26692.33,16021.42 27568.58,16021.42 27568.58,16099.01 27172.06,16099.01 27172.06,17157.05 27087.77,17157.05 "/>
  <path class="fil0" d="M28292.12 16610.19c190.55,0 332.75,-95.3 332.75,-259.85l0 -3.43c0,-151.65 -121.2,-247.9 -327.59,-247.9l-387.07 0 0 511.18 381.91 0zm-466.68 -588.77l477.24 0c139.54,0 251.23,44.03 320.18,111.31 53.85,54.01 85.78,129.97 85.78,211.52l0 2.66c0,190.77 -142.07,299.5 -333.06,325.25l375.12 484.89 -107.33 0 -361.78 -470.04 -371.38 0 0 470.04 -84.77 0 0 -1135.63z"/>
  <path class="fil0" d="M28981.65 16685.19l0 -663.77 83.99 0 0 655.34c0,268.19 145.04,422.52 384.59,422.52 230.42,0 378.03,-139.88 378.03,-414.09l0 -663.77 84.98 0 0 654.01c0,326.67 -190.59,500.49 -466.3,500.49 -272.57,0 -465.29,-172.27 -465.29,-490.73z"/>
  <path class="fil0" d="M30182.53 16592.51l0 -2.97c0,-322.13 240.49,-588.39 567.78,-588.39 204.02,0 325.09,75.18 442.16,182.34l-59.69 61.6c-99.46,-95.48 -213.19,-167.28 -384.13,-167.28 -272.48,0 -478.39,222.21 -478.39,508.21l0 3.52c0,287.31 209.43,511.42 480.05,511.42 164.46,0 276.22,-62.99 391.98,-177.12l56.35 54.87c-119.72,119.04 -250,198.19 -451.23,198.19 -324.39,0 -564.88,-257.97 -564.88,-584.39z"/>
  <path class="fil0" d="M31348.17 16592.51l0 -2.97c0,-322.13 240.73,-588.39 568.39,-588.39 203.34,0 324.48,75.18 441.48,182.34l-59.7 61.6c-99.67,-95.48 -213.24,-167.28 -383.48,-167.28 -272.97,0 -478.96,222.21 -478.96,508.21l0 3.52c0,287.31 208.96,511.42 480.66,511.42 163.84,0 275.38,-62.99 391.37,-177.12l56.19 54.87c-119.56,119.04 -249.75,198.19 -451.08,198.19 -324.14,0 -564.87,-257.97 -564.87,-584.39z"/>
  <polygon class="fil0" points="32608.53,16021.39 32692.45,16021.39 32692.45,17157.03 32608.53,17157.03 "/>
  <path class="fil0" d="M34046.49 16592.51l0 -2.97c0,-281.46 -205.37,-511.73 -485.35,-511.73 -280.54,0 -482.61,227.06 -482.61,508.21l0 3.52c0,281.07 205.28,511.42 485.97,511.42 280.36,0 481.99,-227.14 481.99,-508.45zm-1055.63 0l0 -2.97c0,-309.89 228.63,-588.39 573.64,-588.39 344.52,0 569.72,274.6 569.72,584.87l0 3.52c0,309.26 -229.18,587.36 -573.08,587.36 -344.55,0 -570.28,-273.35 -570.28,-584.39z"/>
  <polygon class="fil0" points="34421.28,16021.42 34500.98,16021.42 35284.96,17009.98 35284.96,16021.42 35366.08,16021.42 35366.08,17157.05 35303.24,17157.05 34502.55,16148.26 34502.55,17157.05 34421.28,17157.05 "/>
  <path class="fil0" d="M14911.38 10998.68c470.91,114.26 716.24,283.41 716.24,656.21 0,420.02 -327.62,669.09 -796.56,669.09 -341.49,0 -662.16,-118.17 -929.88,-357.18l234.16 -280.31c214.2,184.84 428.44,289.67 705.55,289.67 242.06,0 394.57,-111.31 394.57,-283.56 0,-162.3 -88.84,-248.46 -502.9,-343 -475.44,-116.05 -742.63,-255.46 -742.63,-669.93 0,-389.1 318.32,-649.19 761.81,-649.19 324.41,0 582.78,98.66 809.21,279.27l-211.06 296.62c-200.37,-149.86 -400.81,-229.87 -604.54,-229.87 -230.49,0 -363.88,118.18 -363.88,268.04 0,175.7 102.31,251.97 529.91,354.14z"/>
  <path class="fil0" d="M17153.22 10383.7c-442.65,0 -751.9,353.19 -751.9,789.6 0,436.39 315.4,796.47 758.05,796.47 443.76,0 752.39,-353.97 752.39,-789.37 0,-436.96 -315.27,-796.7 -758.54,-796.7zm0 1946.61c-684.4,0 -1162.32,-520.16 -1162.32,-1149.91 0,-631.31 483.94,-1156.32 1168.47,-1156.32 685.48,0 1163.49,518.77 1163.49,1149.22 0,630.43 -484.95,1157.01 -1169.64,1157.01z"/>
  <polygon class="fil0" points="18797.55,10061.7 19189.24,10061.7 19189.24,11934.72 20361.69,11934.72 20361.69,12291.04 18797.55,12291.04 "/>
  <path class="fil0" d="M22578.62 11325.84c0,665.96 -375.68,1001.37 -958.52,1001.37 -579.96,0 -950.01,-335.41 -950.01,-982.26l0 -1283.21 392.07 0 0 1267.53c0,414.08 213.56,637.55 564.12,637.55 347.73,0 560.82,-209.82 560.82,-621.87l0 -1283.21 391.52 0 0 1264.1z"/>
  <path class="fil0" d="M24153.21 12330.33c-650.35,0 -1134.28,-506.81 -1134.28,-1149.9 0,-637.56 474.64,-1156.39 1150.14,-1156.39 410.42,0 659.18,142.53 872.34,346.65l-251.57 289.42c-178.21,-165.48 -369.59,-276.39 -624.53,-276.39 -426.81,0 -735.75,350.01 -735.75,789.6 0,439.38 308.94,796.47 735.75,796.47 274.61,0 449.22,-111.29 640.3,-289.65l251.64 254.6c-231.97,242.06 -487.46,395.59 -904.04,395.59z"/>
  <polygon class="fil0" points="25882.59,12290.99 25491.38,12290.99 25491.38,10061.65 25882.59,10061.65 "/>
  <path class="fil0" d="M27542.05 10383.7c-442.56,0 -752.36,353.19 -752.36,789.6 0,436.39 316.66,796.47 758.54,796.47 443.6,0 751.99,-353.97 751.99,-789.37 0,-436.96 -314.96,-796.7 -758.17,-796.7zm0 1946.61c-684.99,0 -1162.69,-520.16 -1162.69,-1149.91 0,-631.31 484.34,-1156.32 1168.87,-1156.32 685.63,0 1163.27,518.77 1163.27,1149.22 0,630.43 -483.96,1157.01 -1169.45,1157.01z"/>
  <polygon class="fil0" points="30744,10061.7 31129.43,10061.7 31129.43,12291.04 30801.31,12291.04 29571.93,10705.67 29571.93,12291.04 29186.1,12291.04 29186.1,10061.7 29548.89,10061.7 30744,11603.3 "/>
  <polygon class="fil0" points="33355.87,10411.73 32094.9,10411.73 32094.9,10992.31 33213.27,10992.31 33213.27,11342.76 32094.9,11342.76 32094.9,11941.69 33372.36,11941.69 33372.36,12290.99 31702.92,12290.99 31702.92,10061.74 33355.87,10061.74 "/>
  <path class="fil0" d="M34698.14 10998.68c470.44,114.26 716.55,283.41 716.55,656.21 0,420.02 -328.37,669.09 -797.02,669.09 -340.41,0 -661.76,-118.17 -929.49,-357.18l234.87 -280.31c213.8,184.84 427.67,289.67 705.39,289.67 241.04,0 394.49,-111.31 394.49,-283.56 0,-162.3 -89.37,-248.46 -503.77,-343 -475.04,-116.05 -741.68,-255.46 -741.68,-669.93 0,-389.1 318,-649.19 761.2,-649.19 324.08,0 582.99,98.66 808.72,279.27l-210.19 296.62c-200.53,-149.86 -401.28,-229.87 -604.46,-229.87 -230.97,0 -363.91,118.18 -363.91,268.04 0,175.7 101.63,251.97 529.3,354.14z"/>
  <polygon class="fil0" points="14476.39,15435.37 14073.23,15435.37 14073.23,13135.38 14476.39,13135.38 "/>
  <polygon class="fil0" points="16697.38,13135.36 17095.29,13135.36 17095.29,15435.32 16756.55,15435.32 15488.47,13799.69 15488.47,15435.32 15091.55,15435.32 15091.55,13135.36 15465.83,13135.36 16697.38,14725.97 "/>
  <polygon class="fil0" points="18658.98,15435.32 18251.28,15435.32 18251.28,13510.7 17522.1,13510.7 17522.1,13135.34 19388,13135.34 19388,13510.7 18658.98,13510.7 "/>
  <polygon class="fil0" points="21519.3,13497.21 20219.38,13497.21 20219.38,14095.89 21372.1,14095.89 21372.1,14456.65 20219.38,14456.65 20219.38,15075.25 21536.71,15075.25 21536.71,15435.3 19814.9,15435.3 19814.9,13135.34 21519.3,13135.34 "/>
  <path class="fil0" d="M23106.26 15474.42c-719.05,0 -1192.15,-512.13 -1192.15,-1184.8 0,-648.18 492.86,-1193.31 1186.13,-1193.31 401.76,0 647.16,111.93 883.75,311.99l-256.02 305.52c-177.98,-150.81 -351.87,-246.2 -643.8,-246.2 -424.24,0 -746.37,368.2 -746.37,814.81 0,475.91 312.93,825.61 781.73,825.61 217.7,0 415.02,-69.63 555.43,-174.62l0 -430.95 -587.91 0 0 -350.85 978.83 0 0 965.62c-226.13,193.65 -552.02,357.18 -959.62,357.18z"/>
  <path class="fil0" d="M25583.6 13503.84l-587.44 0 0 772.51 590.41 0c290.13,0 473.47,-151.34 473.47,-388.25 0,-252.74 -177.41,-384.26 -476.44,-384.26zm483.23 1931.46l-564.87 -800.36 -505.8 0 0 800.36 -404.73 0 0 -2299.96 1024.88 0c529.51,0 854.7,279.67 854.7,730.28 0,380.68 -226.13,610.94 -548.81,699.6l621.16 870.08 -476.53 0z"/>
  <path class="fil0" d="M27961.54 13602.61l-393.8 919.42 791.8 0 -398 -919.42zm1206.72 1832.67l-427.89 0 -232.52 -554.12 -1087.16 0 -237.36 554.12 -413.85 0 1012.06 -2315.59 374.35 0 1012.37 2315.59z"/>
  <polygon class="fil0" points="29562.19,13135.36 29966.21,13135.36 29966.21,15067.92 31175.21,15067.92 31175.21,15435.32 29562.19,15435.32 "/>
  <polygon class="fil0" points="33300.91,13497.21 31999.2,13497.21 31999.2,14095.89 33153.09,14095.89 33153.09,14456.65 31999.2,14456.65 31999.2,15075.25 33316.62,15075.25 33316.62,15435.3 31595.74,15435.3 31595.74,13135.34 33300.91,13135.34 "/>
  <path class="fil0" d="M34683.89 14102.06c485.66,117.71 738.32,292.08 738.32,676.65 0,433.92 -338.22,689.62 -820.74,689.62 -351.89,0 -683.31,-121.53 -958.91,-367.95l242.9 -288.41c219.42,190.15 440.24,298.26 725.62,298.26 250.31,0 407.75,-115.21 407.75,-292.18 0,-167.51 -91.33,-256.17 -519.16,-355.69 -489.78,-117.62 -765.49,-261.57 -765.49,-689.47 0,-400.19 328.39,-670.26 785.01,-670.26 335.4,0 600.56,102.43 834.03,289.74l-215.99 305.52c-206.92,-155.17 -414.71,-236.66 -624.13,-236.66 -236.97,0 -374.59,121.51 -374.59,275.75 0,181.17 104.77,259.85 545.38,365.08z"/>
  <path class="fil1" d="M7537.53 10314.71l2613.44 1268.78 2635.22 -1327.02 -2633.98 -1287.75 -2614.68 1345.99zm2614.68 1431.61l-2940.88 -1427.63 2939.31 -1513.03 2963.39 1449.09 -2961.82 1491.57z"/>
  <path class="fil1" d="M7537.53 13746.17l2613.44 1267.83 2635.22 -1326.38 -2633.98 -1288.08 -2614.68 1346.63zm2614.68 1430.19l-2940.88 -1426.92 2939.31 -1512.64 2963.39 1448.79 -2961.82 1490.77z"/>
  <path class="fil1" d="M7537.53 17176.92l2613.44 1268.16 2635.22 -1327.02 -2633.98 -1287.04 -2614.68 1345.9zm2614.68 1431.7l-32.39 -16.55 -2908.49 -1411.17 2939.31 -1513.01 2963.39 1448.85 -2961.82 1491.88z"/>
  <polygon class="fil1" points="7406.15,13768.25 7260.27,13768.25 7260.27,10296.12 7406.15,10296.12 "/>
  <polygon class="fil2" points="10248.84,15749.29 10103.34,15749.29 10103.34,15091.07 10248.84,15091.07 "/>
  <path class="fil3" d="M10187.92 18687.87c-66.73,0 -129.96,-35.75 -162.66,-99.21 -45.36,-89.92 -9.61,-199.11 79.69,-244.47l2721.31 -1388.2 -33.08 -2981.64 -2780.49 1349.57 -26.46 -3768.19 2940.97 -1489.76c89.52,-45.67 199.11,-9.98 244.69,80 45.44,89.92 9.29,199.76 -80.69,244.72l-2739.43 1387.64 20.84 2966.11 2777.82 -1348.33 42.39 3782.09 -2922.17 1490.16c-27.08,13.65 -55.18,19.51 -82.73,19.51z"/>
 </g>
</svg>
